<?xml version="1.0" encoding="utf-8"?>
<!-- Generator: Adobe Illustrator 16.0.0, SVG Export Plug-In . SVG Version: 6.00 Build 0)  -->
<!DOCTYPE svg PUBLIC "-//W3C//DTD SVG 1.1//EN" "http://www.w3.org/Graphics/SVG/1.1/DTD/svg11.dtd">
<svg version="1.1" id="Layer_1" xmlns="http://www.w3.org/2000/svg" xmlns:xlink="http://www.w3.org/1999/xlink" x="0px" y="0px"
	 width="144px" height="107.5px" viewBox="0 0 144 107.5" enable-background="new 0 0 144 107.5" xml:space="preserve">
<g>
	<path d="M25.568,77.243c-1.883-1.614-3.371-3.62-4.381-5.868c0,0.014,0,0.027,0,0.041c0,2.486,0.281,4.904,0.801,7.234
		C23.154,78.12,24.345,77.645,25.568,77.243z"/>
	<path d="M117.447,77.158c1.795,0.576,3.521,1.301,5.182,2.146c0.617-2.529,0.951-5.168,0.951-7.888
		c0-1.847-0.156-3.649-0.445-5.412C122.73,70.377,120.67,74.342,117.447,77.158z"/>
	<path d="M88.764,64.174c0-9.344,7.604-16.943,16.941-16.943c2.535,0,4.939,0.563,7.102,1.564c1.303,0.547,2.521,1.246,3.637,2.084
		c-4.688-5.929-11.355-10.22-19.014-11.863V36.68c4.805-2.428,8.104-7.396,8.104-13.145c0-8.137-6.597-14.732-14.732-14.732
		c-8.135,0-14.731,6.595-14.731,14.731c0,5.749,3.301,10.717,8.104,13.145v2.184c-4.277,0.82-8.262,2.462-11.786,4.754
		c-3.521-2.292-7.508-3.934-11.787-4.754v-1.829c5.202-2.274,8.84-7.458,8.84-13.499c0-8.137-6.597-14.732-14.733-14.732
		c-8.138,0-14.731,6.596-14.731,14.732c0,5.45,2.965,10.197,7.365,12.746v2.734c-6.688,1.438-12.619,4.896-17.141,9.699
		c2.115-0.951,4.455-1.483,6.92-1.483c9.343,0,16.941,7.601,16.941,16.942c0,5.28-2.43,10.004-6.228,13.113
		c1.985,0.657,3.905,1.487,5.739,2.489l2.035,1.109c2.97-1.6,6.211-2.76,9.64-3.391c-4.731-2.451-7.972-7.383-7.972-13.08
		c0-8.137,6.599-14.73,14.732-14.73c8.139,0,14.735,6.595,14.735,14.73c0,5.865-3.438,10.918-8.4,13.287
		c3.191,0.693,6.209,1.854,8.982,3.393l2.418-1.318c1.729-0.944,3.532-1.735,5.396-2.373C91.256,74.295,88.764,69.521,88.764,64.174
		z"/>
	<path d="M114.607,78.889v-2.25c0.189,0.041,0.389,0.072,0.58,0.115v-1.322c3.205-2.703,5.25-6.744,5.25-11.258
		c0-8.125-6.609-14.733-14.732-14.733s-14.732,6.608-14.732,14.733c0,5.428,2.959,10.168,7.344,12.725v0.273
		c0.027-0.008,0.061-0.016,0.088-0.021v2.295c-2.771,0.832-5.393,2.027-7.797,3.535c1.012,0.787,1.971,1.625,2.867,2.514
		c5.854,5.29,9.814,12.636,10.732,20.902h-1.293c0.002,0.021,0.002,0.041,0.004,0.062l0.059,1.043H139.5
		C138.344,93.432,128.066,81.918,114.607,78.889z"/>
	<path d="M44.468,79.428v-0.305c-0.271-0.07-0.549-0.121-0.822-0.188v-2.261c0.299,0.065,0.604,0.121,0.901,0.192
		c4.36-2.563,7.302-7.286,7.302-12.7c0-8.123-6.608-14.73-14.731-14.73c-8.122,0-14.733,6.607-14.733,14.73
		c0,4.418,1.965,8.381,5.055,11.084v4.129C14.949,83.041,5.599,94.118,4.5,107.5h35.835l0.057-1.047
		c0.518-9.389,5.114-18.018,12.611-23.721c-2.516-1.527-5.259-2.713-8.164-3.504C44.716,79.297,44.597,79.367,44.468,79.428z"/>
</g>
</svg>
