<?xml version="1.0" encoding="utf-8"?>
<!-- Generator: Adobe Illustrator 16.2.0, SVG Export Plug-In . SVG Version: 6.00 Build 0)  -->
<!DOCTYPE svg PUBLIC "-//W3C//DTD SVG 1.1//EN" "http://www.w3.org/Graphics/SVG/1.1/DTD/svg11.dtd">
<svg version="1.1" id="Layer_1" xmlns="http://www.w3.org/2000/svg" xmlns:xlink="http://www.w3.org/1999/xlink" x="0px" y="0px"
	 width="106px" height="94px" viewBox="0 0 106 94" enable-background="new 0 0 106 94" xml:space="preserve">
<g>
	<path d="M37.309,33.23h31.074c3.338,0,6.045-2.873,6.045-6.414v-3.305c0-3.543-2.707-6.415-6.045-6.415H37.309
		c-3.338,0-6.045,2.872-6.045,6.415v3.305C31.264,30.357,33.971,33.23,37.309,33.23z"/>
	<path d="M39.005,38.474H34.93c-2.197,0-3.977,1.779-3.977,3.975v4.076c0,2.197,1.779,3.975,3.977,3.975h4.075
		c2.197,0,3.978-1.775,3.978-3.975v-4.076C42.982,40.252,41.202,38.474,39.005,38.474z"/>
	<path d="M39.005,52.199H34.93c-2.197,0-3.977,1.781-3.977,3.975v4.078c0,2.197,1.779,3.977,3.977,3.977h4.075
		c2.197,0,3.978-1.776,3.978-3.977v-4.078C42.982,53.98,41.202,52.199,39.005,52.199z"/>
	<path d="M39.005,66.209H34.93c-2.197,0-3.977,1.779-3.977,3.98v4.074c0,2.192,1.779,3.977,3.977,3.977h4.075
		c2.197,0,3.978-1.783,3.978-3.977v-4.074C42.982,67.988,41.202,66.209,39.005,66.209z"/>
	<path d="M54.884,38.474h-4.077c-2.197,0-3.978,1.779-3.978,3.975v4.076c0,2.197,1.78,3.975,3.978,3.975h4.077
		c2.194,0,3.978-1.775,3.978-3.975v-4.076C58.859,40.252,57.078,38.474,54.884,38.474z"/>
	<path d="M54.884,52.199h-4.077c-2.197,0-3.978,1.781-3.978,3.975v4.078c0,2.197,1.78,3.977,3.978,3.977h4.077
		c2.194,0,3.978-1.776,3.978-3.977v-4.078C58.859,53.98,57.078,52.199,54.884,52.199z"/>
	<path d="M54.884,66.209h-4.077c-2.197,0-3.978,1.779-3.978,3.98v4.074c0,2.192,1.78,3.977,3.978,3.977h4.077
		c2.194,0,3.978-1.783,3.978-3.977v-4.074C58.859,67.988,57.078,66.209,54.884,66.209z"/>
	<path d="M70.62,38.474h-4.078c-2.196,0-3.976,1.779-3.976,3.975v4.076c0,2.197,1.776,3.975,3.976,3.975h4.078
		c2.194,0,3.974-1.775,3.974-3.975v-4.076C74.594,40.252,72.814,38.474,70.62,38.474z"/>
	<path d="M70.389,52.199h-3.934c-2.197,0-3.977,1.781-3.977,3.975v17.494c0,2.195,1.777,3.979,3.977,3.979h3.934
		c2.193,0,3.979-1.78,3.979-3.979V56.174C74.366,53.98,72.582,52.199,70.389,52.199z"/>
	<path d="M72.809,7.521H33.193c-6.459,0-11.693,5.215-11.693,11.647v57.826c0,6.434,5.234,11.648,11.693,11.648h39.616
		c6.457,0,11.69-5.216,11.69-11.648V19.169C84.5,12.736,79.266,7.521,72.809,7.521z M78.247,76.264c0,3.734-3.026,6.76-6.759,6.76
		H34.344c-3.734,0-6.759-3.024-6.759-6.76V20.158c0-3.733,3.024-6.759,6.759-6.759h37.144c3.732,0,6.76,3.026,6.76,6.759
		L78.247,76.264L78.247,76.264z"/>
</g>
</svg>
