<?xml version="1.0" encoding="utf-8"?>
<!-- Generator: Adobe Illustrator 16.0.0, SVG Export Plug-In . SVG Version: 6.00 Build 0)  -->
<!DOCTYPE svg PUBLIC "-//W3C//DTD SVG 1.1//EN" "http://www.w3.org/Graphics/SVG/1.1/DTD/svg11.dtd">
<svg version="1.1" id="Layer_1" xmlns="http://www.w3.org/2000/svg" xmlns:xlink="http://www.w3.org/1999/xlink" x="0px" y="0px"
	 width="100px" height="72px" viewBox="0 0 100 72" enable-background="new 0 0 100 72" xml:space="preserve">
<g>
	<path d="M85.377,20.064H70.621l5.793,12.111h8.283v30.28H14.549v-30.28h32.875l-5.625-12.111H14.625
		c-2.83,0-5.125,6.298-5.125,14.068v19.302c0,7.771,2.295,14.067,5.125,14.067h70.752c2.83,0,5.123-6.297,5.123-14.067V34.132
		C90.5,26.363,88.207,20.064,85.377,20.064z"/>
	<path d="M59.498,40.105h-19.57c-1.375,0-2.491,0.184-2.491,0.408v4.161c0,0.228,1.114,0.41,2.491,0.41h22.839L59.498,40.105z"/>
	<path d="M65.594,49.945H39.926c-1.375,0-2.49,0.185-2.49,0.41v4.162c0,0.226,1.115,0.407,2.49,0.407h28.938L65.594,49.945z"/>
	<path d="M56.939,26.121l8.83-5.047c0,0,14.637,29.271,13.881,35.328c0,0,0.026,1.781-1.799,0.537
		C77.85,56.938,68.863,49.945,56.939,26.121z"/>
	<path d="M54.859,22.932l9.024-4.904L54.859,3.116c0,0-2.161-4.709-6.279-2.55c0,0-3.139,2.354-1.961,5.492L54.859,22.932z"/>
	<path d="M45.246,9.787l9.873,19.229c0,0,1.816,4.904-1.969,2.158c0,0-7.512-12.36-10.457-18.836
		C42.693,12.336,42.105,7.236,45.246,9.787z"/>
	<path d="M19.891,50.505h2.906c0,0,2.179,3.736,5.5,1.144c0,0,1.557-1.662-0.935-2.491c0,0-8.925-1.402-7.782-5.371
		c0,0,1.142-3.183,5.084-3.679l0.104-2.366h2.282l0.104,2.366c0,0,4.462,0,4.877,4.509l-2.905-0.13c0,0-1.242-2.223-3.371-1.889
		c0,0-3.789,0.602-2.44,2.49c0,0,0.208,1.268,3.321,1.061c0,0,8.302,1.039,4.566,6.951c0,0-2.492,1.996-4.048,1.828l0.104,2.454
		h-2.387l-0.209-2.454C24.664,54.927,19.963,55.354,19.891,50.505z"/>
</g>
</svg>
