<?xml version="1.0" encoding="utf-8"?>
<!-- Generator: Adobe Illustrator 16.0.0, SVG Export Plug-In . SVG Version: 6.00 Build 0)  -->
<!DOCTYPE svg PUBLIC "-//W3C//DTD SVG 1.1//EN" "http://www.w3.org/Graphics/SVG/1.1/DTD/svg11.dtd">
<svg version="1.1" id="Layer_1" xmlns="http://www.w3.org/2000/svg" xmlns:xlink="http://www.w3.org/1999/xlink" x="0px" y="0px"
	 width="100px" height="106.207px" viewBox="0 0 100 106.207" enable-background="new 0 0 100 106.207" xml:space="preserve">
<g>
	<path d="M5,47.904c0,0,17.34-35.281,64.581-40.861c0,0,11.163,4.584,12.953,14.551c0,0-0.597,5.582-17.734,11.361
		c0,0-7.772,0-8.376-10.166c0,0-7.973-2.588-19.135,5.781c0,0-9.967,5.78-12.756,14.152c0,0,6.577,3.786,6.178,9.167
		c0,0,1.596,4.187-12.955,13.157c0,0-5.981,3.588-7.975-0.998C9.782,64.048,5,60.461,5,47.904z"/>
	<g>
		<path d="M45.262,88.214c-0.401,0.42-0.836,0.82-1.301,1.19c-0.463,0.371-0.951,0.688-1.465,0.957
			c-0.517,0.269-1.059,0.484-1.625,0.646c-0.567,0.156-1.158,0.238-1.771,0.238c-1.046,0-1.968-0.181-2.767-0.545
			c-0.801-0.363-1.475-0.875-2.025-1.539c-0.555-0.658-0.969-1.451-1.245-2.373c-0.276-0.925-0.405-1.953-0.392-3.086
			c0.029-1.31,0.254-2.513,0.672-3.619c0.418-1.104,1.016-2.056,1.791-2.854c0.777-0.803,1.727-1.428,2.845-1.875
			c1.122-0.449,2.397-0.674,3.833-0.674c0.654,0,1.302,0.027,1.938,0.088c0.635,0.06,1.231,0.127,1.793,0.215
			c0.559,0.088,1.074,0.187,1.543,0.283c0.472,0.105,0.869,0.203,1.199,0.307v10.769c0,0.31,0.051,0.597,0.157,0.873
			c0.103,0.279,0.244,0.515,0.425,0.709c0.18,0.195,0.392,0.353,0.64,0.47c0.243,0.116,0.508,0.176,0.793,0.176
			c0.568,0,1.08-0.193,1.537-0.576c0.45-0.387,0.84-0.912,1.153-1.582c0.313-0.666,0.558-1.455,0.727-2.363
			c0.174-0.906,0.262-1.885,0.262-2.93c0-1.82-0.273-3.434-0.82-4.844c-0.547-1.406-1.301-2.594-2.274-3.556
			c-0.968-0.957-2.127-1.688-3.471-2.188c-1.345-0.504-2.816-0.752-4.414-0.752c-2.195,0-4.148,0.361-5.858,1.089
			c-1.709,0.729-3.149,1.733-4.321,3.02c-1.173,1.285-2.07,2.808-2.689,4.566c-0.621,1.76-0.929,3.661-0.929,5.711
			c0,1.903,0.257,3.616,0.771,5.137c0.516,1.519,1.288,2.804,2.319,3.857c1.029,1.053,2.313,1.864,3.853,2.432
			s3.323,0.851,5.354,0.851c1.491,0,2.967-0.154,4.424-0.459c1.457-0.304,2.76-0.689,3.906-1.152v2.42
			c-1.162,0.578-2.474,1.047-3.93,1.395c-1.455,0.349-3.052,0.521-4.783,0.521c-2.404,0-4.548-0.332-6.428-1.004
			c-1.884-0.666-3.473-1.637-4.773-2.91c-1.3-1.271-2.287-2.828-2.968-4.674c-0.681-1.846-1.019-3.941-1.019-6.277
			c0-2.459,0.391-4.736,1.176-6.844c0.781-2.109,1.906-3.936,3.37-5.477c1.465-1.535,3.237-2.746,5.321-3.615
			c2.082-0.873,4.424-1.309,7.022-1.309c2.09,0,4.009,0.321,5.757,0.967c1.751,0.647,3.255,1.582,4.516,2.803
			c1.262,1.221,2.246,2.711,2.946,4.473c0.7,1.76,1.052,3.748,1.052,5.969c0,1.221-0.143,2.432-0.436,3.633
			c-0.293,1.199-0.725,2.267-1.299,3.203c-0.576,0.937-1.295,1.697-2.152,2.275c-0.858,0.584-1.855,0.875-2.993,0.875
			c-0.671,0-1.271-0.086-1.801-0.262c-0.53-0.176-1-0.41-1.411-0.699c-0.412-0.289-0.755-0.619-1.031-0.979
			c-0.275-0.361-0.496-0.73-0.662-1.095L45.262,88.214L45.262,88.214L45.262,88.214z M44.879,77.6
			c-0.371-0.103-0.791-0.188-1.254-0.265c-0.461-0.067-0.992-0.106-1.588-0.106c-1.078,0-1.982,0.194-2.724,0.586
			c-0.738,0.396-1.34,0.903-1.802,1.526c-0.465,0.625-0.797,1.324-0.997,2.097c-0.204,0.771-0.304,1.522-0.304,2.266
			c0,1.641,0.349,2.855,1.041,3.645c0.693,0.779,1.603,1.172,2.723,1.172c0.926,0,1.805-0.233,2.633-0.703
			c0.828-0.479,1.587-1.084,2.271-1.823L44.879,77.6L44.879,77.6z"/>
	</g>
	<path d="M33.104,65.443l3.788-1.394l8.37-27.337l46.442,13.384l-10.166,34.68L60.813,78.4v3.389l19.332,5.58
		c0,0,2.393,1.994,4.387-2.592l9.967-32.889c0,0,1.795-3.986-1.396-4.982L48.254,33.75c0,0-5.313-2.451-6.742,2.961L33.104,65.443z"
		/>
	<path d="M62.805,65.443l25.111-12.042c0,0,2.195-2.709-1.594-2.109L64.05,61.656L49.346,40.33c0,0-4.084-2.592-2.688,1.793
		L62.805,65.443z"/>
	<g>
		<path d="M79.917,82.453c-0.558,0-1.094-0.299-1.367-0.82L71.079,67.55c-0.399-0.754-0.114-1.69,0.646-2.094
			c0.754-0.404,1.693-0.113,2.096,0.644l7.466,14.077c0.401,0.757,0.116,1.695-0.644,2.099
			C80.414,82.395,80.161,82.453,79.917,82.453z"/>
	</g>
	<path d="M54.596,60.367c-0.371-0.631-1.184-0.846-1.813-0.479l-6.89,4.008c1.058,0.258,2.332,0.623,3.387,1.093l4.836-2.808
		C54.744,61.809,54.959,60.998,54.596,60.367z"/>
</g>
</svg>
