<?xml version="1.0" encoding="utf-8"?>
<!-- Generator: Adobe Illustrator 16.2.0, SVG Export Plug-In . SVG Version: 6.00 Build 0)  -->
<!DOCTYPE svg PUBLIC "-//W3C//DTD SVG 1.1//EN" "http://www.w3.org/Graphics/SVG/1.1/DTD/svg11.dtd">
<svg version="1.1" id="Layer_1" xmlns="http://www.w3.org/2000/svg" xmlns:xlink="http://www.w3.org/1999/xlink" x="0px" y="0px"
	 width="100px" height="100px" viewBox="0 0 100 100" enable-background="new 0 0 100 100" xml:space="preserve">
<g>
	<path fill-rule="evenodd" clip-rule="evenodd" fill="none" d="M1.701,5.434c32.639,0,65.277,0.017,97.916-0.048
		c1.701-0.003,2.04,0.334,2.036,2.036c-0.066,31.976-0.066,63.952,0,95.928c0.004,1.701-0.335,2.039-2.036,2.035
		c-31.976-0.066-63.952-0.066-95.927,0c-1.702,0.004-2.04-0.334-2.037-2.035C1.718,70.711,1.701,38.072,1.701,5.434z M63.381,11.398
		c-8.359,0-16.718-0.009-25.077,0.003c-7.125,0.01-11.297,4.129-11.313,11.198c-0.021,9.766-0.014,19.531-0.003,29.297
		c0.008,7.546,4.099,11.618,11.679,11.626c10.676,0.011,21.353,0.033,32.028-0.031c1.539-0.01,2.619,0.436,3.679,1.539
		c3.153,3.283,6.435,6.439,9.624,9.688c1.429,1.451,3.032,2.012,4.934,1.178c1.741-0.764,2.258-2.275,2.239-4.066
		c-0.022-2.316,0.043-4.636-0.025-6.951c-0.031-1.121,0.257-1.726,1.411-2.17c4.506-1.73,6.815-5.17,6.855-9.934
		c0.089-10.262,0.123-20.525-0.007-30.786c-0.082-6.48-4.453-10.567-10.949-10.584C80.097,11.382,71.739,11.398,63.381,11.398z
		 M19.716,86.537c-0.227-0.129-0.454-0.258-0.682-0.389c0-0.895,0-1.789,0-2.686c-0.002-4.443-0.002-4.443-4.485-4.645
		c-2.606-0.115-3.869-1.145-3.879-3.5c-0.046-10.27-0.036-20.538-0.003-30.807c0.006-2.086,1.212-3.189,3.272-3.272
		c1.572-0.063,3.149-0.065,4.719-0.005c1.054,0.04,1.382-0.319,1.461-1.404c0.438-5.998,0.473-5.995-5.449-5.908
		c-0.083,0.002-0.166,0-0.248,0.002C7.749,34.078,3.575,38.195,3.535,44.855C3.476,54.959,3.527,65.062,3.517,75.166
		c-0.006,4.928,2.233,8.398,6.8,10.215c1.194,0.475,1.419,1.123,1.396,2.223c-0.05,2.318-0.006,4.637-0.015,6.957
		c-0.007,1.92,0.723,3.441,2.565,4.133c1.739,0.654,3.182,0.012,4.459-1.307c3.227-3.33,6.559-6.559,9.76-9.914
		c1.055-1.105,2.124-1.564,3.674-1.555c10.931,0.066,21.862,0.02,32.794,0.043c4.046,0.006,7.229-1.572,9.395-5.008
		c2.041-3.238,1.878-4.367-0.798-7.047c-0.469-0.469-0.897-0.986-1.415-1.393c-0.942-0.746-1.615-2.539-2.809-2.07
		c-1.23,0.482-0.465,2.219-0.49,3.381c-0.088,4.197-0.849,4.994-5.178,4.998c-11.428,0.004-22.857,0.029-34.285-0.029
		c-1.615-0.01-2.825,0.396-3.905,1.623C23.616,82.516,21.64,84.502,19.716,86.537z"/>
	<path fill-rule="evenodd" clip-rule="evenodd" d="M63.381,11.398c8.358,0,16.716-0.016,25.075,0.005
		c6.496,0.017,10.867,4.104,10.949,10.584c0.13,10.261,0.096,20.524,0.007,30.786c-0.04,4.764-2.35,8.203-6.855,9.934
		c-1.154,0.444-1.442,1.049-1.411,2.17c0.068,2.315,0.003,4.635,0.025,6.951c0.019,1.791-0.498,3.303-2.239,4.066
		c-1.901,0.834-3.505,0.273-4.934-1.178c-3.189-3.248-6.471-6.404-9.624-9.688c-1.06-1.104-2.14-1.549-3.679-1.539
		c-10.676,0.064-21.352,0.042-32.028,0.031c-7.58-0.008-11.67-4.08-11.679-11.626c-0.011-9.766-0.018-19.531,0.003-29.297
		c0.016-7.069,4.188-11.188,11.313-11.198C46.663,11.389,55.021,11.398,63.381,11.398z M62.201,44.414
		c1.184-0.359,3.141,0.681,3.5-0.909c0.611-2.717,2.614-3.832,4.516-5.275c3.192-2.425,4.406-5.68,3.593-9.637
		c-0.784-3.812-3.261-6.058-6.88-7.036c-3.266-0.882-6.564-0.777-9.734,0.522c-2.702,1.107-4.498,3.016-4.941,6.019
		c-0.1,0.67-0.242,1.322,0.359,1.833c1.255,1.064,6.176,0.181,7.041-1.349c0.987-1.746,2.507-2.074,4.242-1.725
		c1.801,0.363,2.56,1.723,2.681,3.433c0.174,2.441-0.902,4.327-2.833,5.729c-1.342,0.974-2.688,1.935-3.783,3.191
		c-1.08,1.238-1.895,2.784-1.341,4.299C59.201,45.1,60.975,44.059,62.201,44.414z M62.025,53.582
		c3.576,0.004,3.783-0.156,3.792-2.924c0.009-2.844-0.157-2.978-3.7-2.976c-0.576,0-1.152,0-1.728,0.005
		c-1.335,0.01-1.851,0.756-1.976,2.015C58.094,52.924,58.676,53.578,62.025,53.582z"/>
	<path fill-rule="evenodd" clip-rule="evenodd" d="M19.716,86.537c1.923-2.035,3.899-4.021,5.749-6.121
		c1.08-1.227,2.29-1.633,3.905-1.623c11.428,0.059,22.857,0.033,34.285,0.029c4.329-0.004,5.09-0.801,5.178-4.998
		c0.025-1.162-0.74-2.898,0.49-3.381c1.193-0.469,1.866,1.324,2.809,2.07c0.518,0.406,0.946,0.924,1.415,1.393
		c2.676,2.68,2.839,3.809,0.798,7.047c-2.165,3.436-5.349,5.014-9.395,5.008c-10.932-0.023-21.863,0.023-32.794-0.043
		c-1.55-0.01-2.619,0.449-3.674,1.555c-3.201,3.355-6.533,6.584-9.76,9.914c-1.277,1.318-2.72,1.961-4.459,1.307
		c-1.842-0.691-2.572-2.213-2.565-4.133c0.009-2.32-0.036-4.639,0.015-6.957c0.023-1.1-0.202-1.748-1.396-2.223
		c-4.567-1.816-6.806-5.287-6.8-10.215c0.011-10.104-0.041-20.207,0.019-30.311c0.04-6.66,4.213-10.777,10.889-10.931
		c0.083-0.002,0.166,0,0.248-0.002c5.921-0.087,5.887-0.09,5.449,5.908c-0.08,1.085-0.407,1.444-1.461,1.404
		c-1.57-0.061-3.147-0.058-4.719,0.005c-2.06,0.083-3.266,1.186-3.272,3.272c-0.033,10.269-0.043,20.538,0.003,30.807
		c0.01,2.355,1.273,3.385,3.879,3.5c4.483,0.201,4.483,0.201,4.485,4.645c0,0.896,0,1.791,0,2.686
		C19.262,86.279,19.489,86.408,19.716,86.537z"/>
	<path fill-rule="evenodd" clip-rule="evenodd" fill="none" d="M62.201,44.414c-1.227-0.355-3,0.687-3.581-0.904
		c-0.554-1.515,0.261-3.061,1.341-4.299c1.096-1.256,2.441-2.217,3.783-3.191c1.931-1.402,3.007-3.289,2.833-5.729
		c-0.121-1.709-0.88-3.069-2.681-3.433c-1.735-0.35-3.255-0.021-4.242,1.725c-0.865,1.53-5.786,2.414-7.041,1.349
		c-0.602-0.511-0.459-1.163-0.359-1.833c0.443-3.003,2.239-4.911,4.941-6.019c3.17-1.299,6.469-1.404,9.734-0.522
		c3.619,0.978,6.096,3.224,6.88,7.036c0.813,3.957-0.4,7.212-3.593,9.637c-1.901,1.443-3.904,2.558-4.516,5.275
		C65.342,45.094,63.385,44.054,62.201,44.414z"/>
	<path fill-rule="evenodd" clip-rule="evenodd" fill="none" d="M62.025,53.582c-3.35-0.004-3.932-0.658-3.611-3.88
		c0.125-1.259,0.641-2.005,1.976-2.015c0.575-0.004,1.151-0.005,1.728-0.005c3.543-0.001,3.709,0.132,3.7,2.976
		C65.809,53.426,65.602,53.586,62.025,53.582z"/>
</g>
</svg>
