<?xml version="1.0" encoding="utf-8"?>
<!-- Generator: Adobe Illustrator 16.2.0, SVG Export Plug-In . SVG Version: 6.00 Build 0)  -->
<!DOCTYPE svg PUBLIC "-//W3C//DTD SVG 1.1//EN" "http://www.w3.org/Graphics/SVG/1.1/DTD/svg11.dtd">
<svg version="1.1" id="Layer_1" xmlns="http://www.w3.org/2000/svg" xmlns:xlink="http://www.w3.org/1999/xlink" x="0px" y="0px"
	 width="158px" height="136.5px" viewBox="0 0 158 136.5" enable-background="new 0 0 158 136.5" xml:space="preserve">
<g id="Background">
</g>
<g id="Layer_1_1_">
</g>
<g id="Layer_3">
	<g>
		<path d="M136.148,16.684H28.041c-7.425,0-13.445,8.313-13.445,18.563v77.96c0,10.252,6.021,18.563,13.445,18.563h108.108
			c7.428,0,13.445-8.311,13.445-18.563v-77.96C149.596,24.996,143.574,16.684,136.148,16.684z M126.314,27.5
			c0-1.691,1.48-3.063,3.313-3.063h3.313c1.828,0,3.313,1.371,3.313,3.063v3.063c0,1.689-1.484,3.062-3.313,3.062h-3.313
			c-1.83,0-3.313-1.371-3.313-3.062V27.5z M108.354,27.5c0-1.691,1.482-3.063,3.313-3.063h3.313c1.828,0,3.313,1.371,3.313,3.063
			v3.063c0,1.689-1.484,3.062-3.313,3.062h-3.313c-1.83,0-3.313-1.371-3.313-3.062V27.5z M90.605,27.5
			c0-1.691,1.48-3.063,3.313-3.063h3.313c1.828,0,3.313,1.371,3.313,3.063v3.063c0,1.689-1.484,3.062-3.313,3.062h-3.313
			c-1.83,0-3.313-1.371-3.313-3.062V27.5z M140.051,118.664c0,2.338-2.838,4.231-6.338,4.231H30.179
			c-3.502,0-6.339-1.895-6.339-4.231V42.604h116.21V118.664z"/>
		<rect x="91.242" y="92.257" width="35.287" height="3.382"/>
		<rect x="91.242" y="83.594" width="35.287" height="3.381"/>
		<rect x="91.242" y="74.227" width="35.287" height="3.381"/>
		<rect x="91.242" y="65.423" width="21.129" height="3.38"/>
	</g>
	<path d="M59.548,57.816v-5.493h-8.24v5.493c0,0-13.101,0.761-13.733,16.228c0,0,0.845,9.552,14.579,12.931
		c0,0,11.121,2.035,11.621,6.974c-0.659,3.776-2.61,4.491-4.119,5.071c0,0-7.928,4.92-13.417-6.763h-8.663
		c0,0,0.423,13.523,13.102,15.425v5.705h9.297v-5.916c0,0,12.676-2.326,12.889-11.834c0,0,2.111-12.043-10.143-15.636
		c0,0-22.396-3.592-13.945-11.198c0,0,9.931-7.27,15.424,5.239h9.087C73.284,74.044,73.495,60.563,59.548,57.816z"/>
</g>
</svg>
