<?xml version="1.0" encoding="utf-8"?>
<!-- Generator: Adobe Illustrator 16.0.0, SVG Export Plug-In . SVG Version: 6.00 Build 0)  -->
<!DOCTYPE svg PUBLIC "-//W3C//DTD SVG 1.1//EN" "http://www.w3.org/Graphics/SVG/1.1/DTD/svg11.dtd">
<svg version="1.1" id="Layer_1" xmlns="http://www.w3.org/2000/svg" xmlns:xlink="http://www.w3.org/1999/xlink" x="0px" y="0px"
	 width="136.842px" height="173.684px" viewBox="0 0 136.842 173.684" enable-background="new 0 0 136.842 173.684"
	 xml:space="preserve">
<g>
	<path d="M95.414,69.26c0,1.267-1.022,2.293-2.291,2.293h-24.72c-1.266,0-2.293-1.027-2.293-2.293l0,0
		c0-1.269,1.027-2.294,2.293-2.294h24.72C94.392,66.967,95.414,67.992,95.414,69.26L95.414,69.26z"/>
	<path d="M95.414,86.051c0,1.268-1.022,2.29-2.291,2.29h-24.72c-1.266,0-2.293-1.022-2.293-2.29l0,0
		c0-1.269,1.027-2.294,2.293-2.294h24.72C94.392,83.756,95.414,84.782,95.414,86.051L95.414,86.051z"/>
	<path d="M95.414,103.379c0,1.27-1.022,2.289-2.291,2.289h-24.72c-1.266,0-2.293-1.021-2.293-2.289l0,0
		c0-1.268,1.027-2.297,2.293-2.297h24.72C94.392,101.082,95.414,102.112,95.414,103.379L95.414,103.379z"/>
	<path d="M86.108,117.901H68.403c-1.266,0-2.293,1.029-2.293,2.293c0,1.266,1.027,2.297,2.293,2.297h14.636
		C84.047,120.826,85.086,119.291,86.108,117.901z"/>
	<circle cx="49.437" cy="120.082" r="4.955"/>
	<path d="M47.06,110.406l-6.271-5.92c-0.616-0.576-0.644-1.547-0.063-2.16c0.58-0.611,1.549-0.645,2.162-0.063l4.057,3.824
		l9.396-9.852c0.585-0.613,1.553-0.635,2.165-0.055c0.609,0.58,0.634,1.549,0.048,2.16L47.06,110.406z"/>
	<path d="M47.06,93.684l-6.271-5.912c-0.616-0.579-0.644-1.544-0.063-2.161c0.58-0.614,1.549-0.641,2.162-0.063l4.057,3.824
		l9.396-9.855c0.585-0.611,1.553-0.635,2.165-0.053c0.609,0.583,0.634,1.553,0.048,2.162L47.06,93.684z"/>
	<path d="M47.06,76.892l-6.271-5.91c-0.616-0.579-0.644-1.547-0.063-2.163c0.58-0.612,1.549-0.641,2.162-0.064l4.057,3.828
		l9.396-9.857c0.585-0.609,1.553-0.635,2.165-0.05c0.609,0.579,0.634,1.55,0.048,2.158L47.06,76.892z"/>
	<polygon points="116.047,89.951 123.444,97.342 95.584,125.209 88.321,117.944 	"/>
	<polygon points="87.601,119.006 94.748,126.004 85.015,128.592 	"/>
	<path d="M117.873,88.34l7.451,7.086c0,0,3.581-1.996,1.604-4.035l-4.331-4.549C122.597,86.841,119.742,84.589,117.873,88.34z"/>
	<g>
		<path d="M102.039,54.407v45.126l6.116-6.145V54.407c0-6.563-5.709-11.905-12.731-11.905H91.08v6.117h4.344
			C99.071,48.619,102.039,51.215,102.039,54.407z"/>
		<path d="M102.039,123.006v5.699c0,3.195-2.968,5.785-6.615,5.785H41.259c-3.648,0-6.617-2.59-6.617-5.785V54.407
			c0-3.192,2.969-5.788,6.617-5.788h4.469v-6.117h-4.469c-7.02,0-12.732,5.342-12.732,11.905v74.298
			c0,6.564,5.714,11.902,12.732,11.902h54.165c7.023,0,12.731-5.338,12.731-11.902v-11.127L102.039,123.006z"/>
	</g>
	<path d="M85.944,39.956h-5.067l-4.172-6.88H58.978l-3.847,6.88h-4.399c-1.012,0-1.834,0.822-1.834,1.835v7.032
		c0,1.014,0.822,1.835,1.834,1.835h35.213c1.018,0,1.841-0.821,1.841-1.835v-7.032C87.785,40.778,86.962,39.956,85.944,39.956z"/>
</g>
</svg>
