<?xml version="1.0" encoding="utf-8"?>
<!-- Generator: Adobe Illustrator 16.0.0, SVG Export Plug-In . SVG Version: 6.00 Build 0)  -->
<!DOCTYPE svg PUBLIC "-//W3C//DTD SVG 1.1//EN" "http://www.w3.org/Graphics/SVG/1.1/DTD/svg11.dtd">
<svg version="1.1" id="Layer_1" xmlns="http://www.w3.org/2000/svg" xmlns:xlink="http://www.w3.org/1999/xlink" x="0px" y="0px"
	 width="72px" height="72px" viewBox="0 0 72 72" enable-background="new 0 0 72 72" xml:space="preserve">
<g>
	<path d="M33.307,72c-1.255-0.383-2.595-0.598-3.747-1.182c-3.707-1.881-5.702-4.961-5.965-9.131
		c-0.018-0.271-0.023-0.545-0.023-0.822c0-13.211,0.008-26.426-0.008-39.641c-0.003-2.8,0.792-5.294,2.645-7.41
		c2.166-2.473,4.933-3.697,8.199-3.717c5.262-0.031,10.528-0.008,15.79-0.008c1.859,0,3.355,0.891,4.76,1.979
		c0.521,0.404,1.041,0.82,1.508,1.285c4.098,4.083,8.209,8.158,12.266,12.281c1.291,1.314,2.451,2.764,3.004,4.586
		c0.092,0.299,0.178,0.601,0.266,0.9c0,10.391,0,20.78,0,31.17c-0.049,0.146-0.117,0.293-0.141,0.443
		c-0.721,4.188-3.051,7.064-7.018,8.58c-0.818,0.313-1.699,0.461-2.551,0.684C52.629,72,42.969,72,33.307,72z M28.91,41.029
		c0,6.586-0.002,13.172,0,19.754c0.004,3.586,2.262,5.863,5.836,5.867c8.684,0.01,17.362,0.006,26.045-0.006
		c0.586,0,1.189-0.055,1.752-0.205c2.555-0.689,4.092-2.693,4.1-5.445c0.021-9.686,0.014-19.371,0.006-29.053
		c-0.004-1.725-0.713-2.557-2.393-2.858c-0.512-0.094-1.041-0.144-1.561-0.149c-2.145-0.021-4.285-0.016-6.426-0.021
		c-2.045-0.007-3.1-1.072-3.105-3.135c-0.006-2.209,0.021-4.422-0.037-6.629c-0.02-0.784-0.166-1.587-0.402-2.335
		c-0.287-0.901-0.979-1.4-1.967-1.398c-5.377,0.003-10.752-0.017-16.131,0.038c-0.885,0.008-1.84,0.189-2.633,0.563
		c-2.121,1.001-3.086,2.792-3.084,5.125C28.912,27.769,28.91,34.4,28.91,41.029z"/>
	<path d="M29.478,2c3.17,0.75,5.211,3.107,7.563,5.284c-0.32,0.028-0.506,0.061-0.692,0.06c-1.779-0.021-3.555-0.015-5.287,0.486
		c-0.158,0.046-0.404,0.046-0.516-0.046c-0.584-0.478-1.26-0.45-1.947-0.448c-5.127,0.008-10.254,0.005-15.381,0.011
		C11.869,7.35,10.604,7.63,9.506,8.481C7.94,9.7,7.342,11.34,7.343,13.269c0.003,10.185,0,20.37,0,30.554
		c0,2.098-0.01,4.193,0.003,6.291c0.02,2.797,1.518,4.859,4.062,5.547c0.563,0.152,1.168,0.201,1.755,0.203
		c2.279,0.023,4.558,0.012,6.836,0.012c0.247,0,0.495,0,0.787,0c0,1.773,0,3.492,0,5.281c-0.215,0.012-0.434,0.039-0.652,0.039
		c-2.393,0.002-4.785,0.01-7.178,0c-5.628-0.029-9.95-3.754-10.827-9.32c-0.02-0.133-0.085-0.258-0.131-0.381
		c0-13.264,0-26.524,0-39.787c0.047-0.148,0.116-0.292,0.141-0.444c0.72-4.186,3.048-7.066,7.017-8.581
		C9.972,2.371,10.853,2.225,11.705,2C17.631,2,23.555,2,29.478,2z"/>
	<path d="M50.984,40.326c-1.234-0.582-2.486-0.92-3.941-0.615c0.15-0.188,0.242-0.32,0.357-0.434
		c1.107-1.078,2.17-2.215,3.346-3.215c3.176-2.701,7.92-1.713,9.68,2.051c1.09,2.334,0.762,4.693-0.914,6.576
		c-2.295,2.584-4.822,4.963-7.277,7.4c-0.359,0.359-0.854,0.604-1.311,0.846c-2.334,1.252-5.137,0.924-7.131-0.813
		c-0.744-0.646-0.879-1.682-0.314-2.379c0.576-0.703,1.635-0.832,2.377-0.164c1.396,1.252,3.289,0.963,4.498-0.227
		c2.107-2.078,4.203-4.172,6.277-6.285c0.861-0.873,1.279-1.951,0.939-3.186c-0.559-2.037-2.975-2.686-4.752-1.27
		C52.168,39.137,51.594,39.754,50.984,40.326z"/>
	<path d="M47.916,56.477c-1.637,1.488-2.979,3.471-5.361,4.207c-2.268,0.699-4.951,0.031-6.432-1.695
		c-1.699-1.982-2.088-4.662-0.907-6.869c0.422-0.793,0.96-1.559,1.582-2.205c1.791-1.877,3.635-3.707,5.496-5.52
		c1.949-1.893,4.26-2.588,6.893-1.75c0.736,0.234,1.416,0.713,2.047,1.18c0.852,0.627,0.977,1.656,0.393,2.393
		c-0.588,0.742-1.611,0.834-2.43,0.156c-1.166-0.963-2.393-1.02-3.674-0.316c-0.355,0.191-0.678,0.463-0.967,0.748
		c-1.828,1.814-3.641,3.643-5.463,5.459c-0.809,0.809-1.348,1.752-1.223,2.922c0.227,2.066,2.396,3.148,4.266,2.094
		c0.74-0.418,1.355-1.063,1.895-1.496C45.369,56.02,46.637,56.248,47.916,56.477z"/>
</g>
</svg>
