<?xml version="1.0" encoding="utf-8"?>
<!-- Generator: Adobe Illustrator 16.0.0, SVG Export Plug-In . SVG Version: 6.00 Build 0)  -->
<!DOCTYPE svg PUBLIC "-//W3C//DTD SVG 1.1//EN" "http://www.w3.org/Graphics/SVG/1.1/DTD/svg11.dtd">
<svg version="1.1" id="Layer_1" xmlns="http://www.w3.org/2000/svg" xmlns:xlink="http://www.w3.org/1999/xlink" x="0px" y="0px"
	 width="216px" height="216px" viewBox="0 0 216 216" enable-background="new 0 0 216 216" xml:space="preserve">
<g>
	<polygon points="97.792,168.402 97.792,134.887 95.049,136.419 92.309,135.197 92.309,168.402 55.75,145.861 55.75,108.075 
		41.123,101.074 41.123,136.717 32.595,130.016 32.595,95.891 27.107,92.234 27.107,130.016 7,130.016 92.614,185.766 
		143.803,157.747 121.256,157.436 	"/>
	<polygon points="83.476,147.382 83.476,128.794 65.804,120.57 65.804,139.01 	"/>
	<polygon points="118.203,144.029 118.203,124.533 102.973,132.457 102.973,151.043 	"/>
	<path d="M87.736,38.919H70.372v15.915c9.37-3.575,17.364-8.297,17.364-8.297V38.919z"/>
	<path d="M56.661,73.348l38.388,56.056l30.467-15.84c3.961-35.65,38.396-41.132,38.396-41.132L133.143,31.3L17.664,86.753h13.405
		L56.661,73.348z"/>
	<path d="M179.245,122.176c-0.409-0.518-0.919-0.96-1.526-1.355c-0.613-0.396-1.336-0.771-2.152-1.139v12.555
		c1.607-0.437,2.834-1.187,3.681-2.262c0.846-1.063,1.254-2.357,1.254-3.856c0-0.847-0.103-1.581-0.317-2.224
		C179.961,123.253,179.654,122.682,179.245,122.176z"/>
	<path d="M164.674,105.042c0,1.608,0.512,2.89,1.547,3.856c1.036,0.97,2.379,1.746,4.028,2.332V99.569
		c-1.677,0.359-3.026,1.043-4.049,2.065C165.177,102.656,164.674,103.789,164.674,105.042z"/>
	<path d="M172.209,79.745c-20.316,0-36.789,16.47-36.789,36.782c0,20.32,16.473,36.797,36.789,36.797
		c20.32,0,36.791-16.477,36.791-36.797C209,96.215,192.529,79.745,172.209,79.745z M187.021,130.327
		c-0.52,1.391-1.295,2.646-2.33,3.749c-1.037,1.091-2.313,2.018-3.838,2.779c-1.541,0.771-3.299,1.324-5.289,1.648v9.296h-5.315
		v-9.063c-1.196-0.055-2.372-0.172-3.517-0.36c-1.146-0.19-2.235-0.442-3.285-0.748c-1.051-0.31-2.018-0.663-2.903-1.071
		c-0.899-0.408-1.69-0.857-2.372-1.336v-7.307c0.736,0.529,1.602,1.068,2.584,1.629c0.98,0.545,2.003,1.029,3.094,1.465
		c1.076,0.438,2.183,0.807,3.285,1.104c1.117,0.313,2.146,0.505,3.114,0.586v-14.885c-1.964-0.694-3.728-1.418-5.296-2.182
		c-1.566-0.764-2.903-1.636-4.008-2.604c-1.117-0.969-1.963-2.079-2.563-3.348c-0.601-1.255-0.905-2.733-0.905-4.411
		c0-1.662,0.334-3.151,0.975-4.484c0.654-1.321,1.541-2.474,2.686-3.455c1.131-0.981,2.475-1.792,4.028-2.433
		c1.554-0.634,3.258-1.07,5.084-1.302v-8.451h5.315v8.226c1.662,0.123,3.291,0.389,4.888,0.784c1.594,0.396,3.183,0.886,4.764,1.472
		v6.727c-0.641-0.271-1.35-0.572-2.112-0.872c-0.764-0.313-1.566-0.586-2.41-0.845c-0.834-0.259-1.691-0.49-2.563-0.687
		c-0.859-0.204-1.719-0.357-2.563-0.459v13.535c1.744,0.695,3.352,1.438,4.826,2.242c1.482,0.805,2.772,1.711,3.877,2.732
		c1.117,1.021,1.977,2.167,2.604,3.447c0.627,1.269,0.936,2.729,0.936,4.349C187.807,127.411,187.553,128.924,187.021,130.327z"/>
</g>
</svg>
