<?xml version="1.0" encoding="utf-8"?>
<!-- Generator: Adobe Illustrator 16.0.0, SVG Export Plug-In . SVG Version: 6.00 Build 0)  -->
<!DOCTYPE svg PUBLIC "-//W3C//DTD SVG 1.1//EN" "http://www.w3.org/Graphics/SVG/1.1/DTD/svg11.dtd">
<svg version="1.1" id="Layer_1" xmlns="http://www.w3.org/2000/svg" xmlns:xlink="http://www.w3.org/1999/xlink" x="0px" y="0px"
	 width="100px" height="106.207px" viewBox="0 0 100 106.207" enable-background="new 0 0 100 106.207" xml:space="preserve">
<g>
	<path d="M42.838,26.045l-2.887,9.02h1.587l0.611-2.049h2.965l0.648,2.049h1.629l-2.971-9.02H42.838L42.838,26.045z M42.61,31.496
		l1-3.349l1.023,3.349H42.61z"/>
	<polygon points="46.888,27.569 49.086,27.569 49.086,35.063 50.582,35.063 50.582,27.569 52.775,27.569 52.775,26.045 
		46.888,26.045 	"/>
	<polygon points="57.313,32.197 55.965,26.045 53.725,26.045 53.725,35.063 55.114,35.063 55.114,27.965 56.582,35.063 
		58.025,35.063 59.496,27.965 59.496,35.063 60.889,35.063 60.889,26.045 58.645,26.045 	"/>
	<rect x="31.149" y="45.055" width="5.801" height="4.8"/>
	<rect x="38.649" y="45.055" width="5.801" height="4.8"/>
	<rect x="46.05" y="45.055" width="5.802" height="4.8"/>
	<rect x="31.149" y="51.504" width="5.801" height="4.799"/>
	<rect x="38.649" y="51.504" width="5.801" height="4.799"/>
	<rect x="46.05" y="51.504" width="5.802" height="4.799"/>
	<rect x="31.149" y="57.904" width="5.801" height="4.801"/>
	<rect x="38.649" y="57.904" width="5.801" height="4.801"/>
	<rect x="46.05" y="57.904" width="5.802" height="4.801"/>
	<rect x="54.35" y="45.055" width="14.5" height="2.8"/>
	<path d="M50.001,6.153c-9.636,0-18.387,3.786-24.85,9.951h49.697C68.389,9.939,59.639,6.153,50.001,6.153z"/>
	<path d="M78.699,20.422v42.186C82.979,55.18,86,47.905,86,42.153C86,33.988,83.279,26.461,78.699,20.422z"/>
	<path d="M50.001,100.053c0,0,12.521-13.221,22.792-28.148H27.208C37.479,86.832,50.001,100.053,50.001,100.053z"/>
	<path d="M20.799,61.732V21.098C16.521,27.019,14,34.291,14,42.154C14,47.68,16.783,54.607,20.799,61.732z"/>
	<path d="M23.799,69.354H76V18.653H23.799V69.354L23.799,69.354z M27.753,22.19H72.15v15.728H27.753V22.19z M27.084,41.604h45.74
		v24.3h-45.74V41.604L27.084,41.604z"/>
</g>
</svg>
