<?xml version="1.0" encoding="utf-8"?>
<!-- Generator: Adobe Illustrator 16.0.0, SVG Export Plug-In . SVG Version: 6.00 Build 0)  -->
<!DOCTYPE svg PUBLIC "-//W3C//DTD SVG 1.1//EN" "http://www.w3.org/Graphics/SVG/1.1/DTD/svg11.dtd">
<svg version="1.1" id="Layer_1" xmlns="http://www.w3.org/2000/svg" xmlns:xlink="http://www.w3.org/1999/xlink" x="0px" y="0px"
	 width="136.842px" height="173.684px" viewBox="0 0 136.842 173.684" enable-background="new 0 0 136.842 173.684"
	 xml:space="preserve">
<g id="Layer_3">
	<g>
		<path d="M120.136,30.44H26.44c-6.436,0-11.652,7.202-11.652,16.085v67.566c0,8.884,5.218,16.089,11.652,16.089h93.694
			c6.437,0,11.652-7.205,11.652-16.089V46.526C131.788,37.642,126.571,30.44,120.136,30.44z M111.608,39.813
			c0-1.464,1.287-2.653,2.871-2.653h2.871c1.584,0,2.871,1.188,2.871,2.653v2.653c0,1.464-1.287,2.654-2.871,2.654h-2.871
			c-1.584,0-2.871-1.189-2.871-2.654V39.813z M96.044,39.813c0-1.464,1.285-2.653,2.87-2.653h2.87c1.584,0,2.871,1.188,2.871,2.653
			v2.653c0,1.464-1.286,2.654-2.871,2.654h-2.87c-1.585,0-2.87-1.189-2.87-2.654V39.813z M80.663,39.813
			c0-1.464,1.287-2.653,2.871-2.653h2.871c1.582,0,2.871,1.188,2.871,2.653v2.653c0,1.464-1.287,2.654-2.871,2.654h-2.871
			c-1.584,0-2.871-1.189-2.871-2.654V39.813z M123.517,118.822c0,2.025-2.459,3.669-5.494,3.669H28.294
			c-3.034,0-5.492-1.644-5.492-3.669V52.904h100.717v65.918H123.517z"/>
		<rect x="81.216" y="95.934" width="30.582" height="2.932"/>
		<rect x="81.216" y="88.429" width="30.582" height="2.931"/>
		<rect x="81.216" y="80.31" width="30.582" height="2.928"/>
		<rect x="81.216" y="72.679" width="18.313" height="2.929"/>
	</g>
	<path d="M53.747,66.088v-4.762h-7.143v4.762c0,0-11.354,0.658-11.901,14.063c0,0,0.731,8.276,12.635,11.208
		c0,0,9.64,1.761,10.073,6.043c-0.571,3.271-2.264,3.889-3.572,4.395c0,0-6.872,4.266-11.627-5.863h-7.508
		c0,0,0.365,11.722,11.354,13.368v4.948h8.055v-5.128c0,0,10.992-2.02,11.172-10.258c0,0,1.831-10.437-8.786-13.549
		c0,0-19.413-3.115-12.088-9.709c0,0,8.606-6.298,13.368,4.545h7.875C65.651,80.152,65.833,68.468,53.747,66.088z"/>
</g>
</svg>
