<?xml version="1.0" encoding="utf-8"?>
<!-- Generator: Adobe Illustrator 16.2.0, SVG Export Plug-In . SVG Version: 6.00 Build 0)  -->
<!DOCTYPE svg PUBLIC "-//W3C//DTD SVG 1.1//EN" "http://www.w3.org/Graphics/SVG/1.1/DTD/svg11.dtd">
<svg version="1.1" id="Layer_1" xmlns="http://www.w3.org/2000/svg" xmlns:xlink="http://www.w3.org/1999/xlink" x="0px" y="0px"
	 width="136.842px" height="118.342px" viewBox="0 0 136.842 118.342" enable-background="new 0 0 136.842 118.342"
	 xml:space="preserve">
<g>
	<path fill="none" d="M108.819,14.64H22.317c-4.998,0-9.062,4.173-9.062,9.306v59.299c0,5.129,4.063,9.307,9.062,9.307h86.502
		c4.996,0,9.061-4.178,9.061-9.307V23.946C117.878,18.814,113.817,14.64,108.819,14.64z M115.114,83.244
		c0,3.614-2.818,6.541-6.295,6.541H22.315c-3.479,0-6.297-2.927-6.297-6.541V23.946c0-3.614,2.819-6.542,6.297-6.542h86.504
		c3.477,0,6.295,2.929,6.295,6.542V83.244L115.114,83.244z"/>
	<path fill="none" d="M73.343,111.19c-0.334,0-0.621-0.062-0.855-0.188c-0.232-0.13-0.387-0.287-0.449-0.48
		c-0.064-0.193-0.102-0.876-0.102-2.044v-5.779h3.469v-3.023h-3.469v-5.063l-5.086,2.217v2.848h-2.332v3.023h2.332v6.254
		c0,1.339,0.053,2.229,0.162,2.673c0.131,0.62,0.367,1.111,0.711,1.477c0.346,0.363,0.883,0.663,1.615,0.891
		c0.733,0.232,1.555,0.348,2.471,0.348c1.493,0,2.829-0.191,4.006-0.568l-0.434-2.939C74.491,111.071,73.813,111.19,73.343,111.19z"
		/>
	<path fill="none" d="M61.563,109.302l0.053-4.43c0-1.649-0.227-2.777-0.676-3.397c-0.453-0.613-1.229-1.125-2.34-1.522
		c-1.104-0.397-2.789-0.602-5.051-0.602c-2.489,0-4.368,0.331-5.63,0.999c-1.263,0.667-2.152,1.69-2.67,3.078l4.599,0.621
		c0.314-0.665,0.725-1.134,1.229-1.399c0.504-0.263,1.207-0.396,2.109-0.396c1.336,0,2.247,0.156,2.729,0.466
		c0.481,0.313,0.719,0.832,0.719,1.559v0.38c-0.915,0.288-2.558,0.601-4.924,0.935c-1.759,0.252-3.103,0.548-4.032,0.883
		c-0.938,0.337-1.66,0.826-2.178,1.461c-0.518,0.633-0.774,1.356-0.774,2.168c0,1.219,0.568,2.235,1.705,3.035
		c1.138,0.8,2.688,1.201,4.666,1.201c1.117,0,2.172-0.158,3.156-0.477c0.985-0.313,1.911-0.784,2.776-1.418
		c0.037,0.074,0.099,0.225,0.185,0.447c0.19,0.496,0.354,0.868,0.483,1.123h5.017c-0.445-0.687-0.748-1.325-0.908-1.924
		C61.646,111.491,61.563,110.559,61.563,109.302z M56.635,107.884c0,0.906-0.064,1.522-0.197,1.85
		c-0.193,0.495-0.595,0.912-1.213,1.258c-0.826,0.444-1.699,0.672-2.613,0.672c-0.819,0-1.49-0.19-2.021-0.577
		c-0.531-0.389-0.792-0.848-0.792-1.381c0-0.541,0.328-0.984,0.99-1.336c0.433-0.215,1.354-0.438,2.76-0.658
		c1.406-0.227,2.438-0.423,3.086-0.584V107.884z"/>
	<path fill="none" d="M114.001,106.71c-1.072-0.665-2.959-1.229-5.655-1.689c-2.703-0.46-4.28-0.813-4.737-1.064
		c-0.336-0.19-0.507-0.417-0.507-0.688c0-0.314,0.194-0.573,0.58-0.771c0.575-0.279,1.532-0.419,2.868-0.419
		c1.059,0,1.873,0.148,2.441,0.444c0.573,0.3,0.961,0.725,1.165,1.286l4.781-0.665c-0.481-1.249-1.358-2.193-2.634-2.834
		c-1.274-0.638-3.225-0.957-5.846-0.957c-2.756,0-4.793,0.424-6.104,1.27c-1.311,0.845-1.966,1.889-1.966,3.131
		c0,1.381,0.755,2.454,2.272,3.229c1.096,0.556,3.686,1.176,7.774,1.85c0.879,0.151,1.442,0.32,1.698,0.499
		c0.238,0.188,0.359,0.429,0.359,0.716c0,0.423-0.223,0.762-0.666,1.013c-0.666,0.357-1.65,0.541-2.965,0.541
		c-1.188,0-2.113-0.194-2.775-0.572c-0.662-0.384-1.104-0.945-1.315-1.684l-5.091,0.584c0.47,1.358,1.464,2.434,2.984,3.224
		c1.521,0.795,3.59,1.188,6.197,1.188c2.877,0,5.053-0.476,6.518-1.417c1.465-0.944,2.203-2.075,2.203-3.392
		C115.589,108.323,115.062,107.381,114.001,106.71z"/>
	<path fill="none" d="M92.979,101.463c-1.648-1.406-3.898-2.111-6.748-2.111c-2.541,0-4.639,0.67-6.303,2.019
		c-1.656,1.349-2.486,3.207-2.486,5.58c0,1.989,0.633,3.64,1.896,4.942c1.601,1.629,4.064,2.443,7.398,2.443
		c2.104,0,3.855-0.361,5.26-1.085c1.396-0.728,2.428-1.78,3.072-3.169l-5.051-0.636c-0.277,0.724-0.686,1.242-1.229,1.565
		c-0.541,0.327-1.209,0.487-2.004,0.487c-1.164,0-2.14-0.313-2.92-0.938c-0.785-0.627-1.193-1.501-1.23-2.625h12.705
		C95.413,105.03,94.626,102.869,92.979,101.463z M82.729,105.613c-0.012-1.031,0.342-1.853,1.066-2.453
		c0.719-0.604,1.634-0.905,2.742-0.905c1.03,0,1.909,0.289,2.635,0.856c0.719,0.571,1.1,1.406,1.137,2.502H82.729z"/>
	<path fill="none" d="M36.942,106.936c-0.754-0.6-1.707-1.153-2.861-1.658c2.322-0.252,4.064-0.859,5.232-1.829
		c1.168-0.966,1.75-2.194,1.75-3.68c0-1.167-0.386-2.208-1.154-3.12c-0.771-0.905-1.795-1.537-3.077-1.895
		c-1.28-0.357-3.335-0.533-6.162-0.533H19.427v19.793h5.34v-8.263h1.082c1.229,0,2.125,0.07,2.688,0.224
		c0.566,0.146,1.103,0.422,1.605,0.82c0.506,0.396,1.444,1.37,2.816,2.907l3.861,4.312h6.389l-3.23-3.864
		C38.705,108.612,37.692,107.543,36.942,106.936z M28.721,102.589h-3.953v-5.021h4.169c2.165,0,3.463,0.022,3.896,0.066
		c0.867,0.107,1.535,0.368,2.013,0.776c0.476,0.408,0.712,0.945,0.712,1.61c0,0.596-0.181,1.088-0.54,1.485
		c-0.362,0.396-0.86,0.677-1.499,0.838C32.881,102.508,31.283,102.589,28.721,102.589z"/>
	<path d="M11.567,12.214v105.128h108V12.214H11.567z M36.823,114.014l-3.862-4.312c-1.371-1.537-2.312-2.51-2.817-2.907
		c-0.504-0.398-1.039-0.677-1.605-0.82c-0.563-0.152-1.459-0.224-2.688-0.224H24.77v8.263h-5.341V94.221h11.243
		c2.824,0,4.88,0.176,6.162,0.533c1.279,0.355,2.305,0.987,3.076,1.895c0.77,0.912,1.153,1.952,1.153,3.12
		c0,1.483-0.581,2.714-1.75,3.679c-1.165,0.971-2.911,1.578-5.231,1.83c1.154,0.505,2.106,1.061,2.859,1.658
		c0.75,0.607,1.764,1.676,3.039,3.215l3.231,3.863H36.823L36.823,114.014z M57.698,114.014c-0.129-0.256-0.293-0.629-0.484-1.124
		c-0.086-0.224-0.146-0.373-0.184-0.446c-0.865,0.634-1.793,1.104-2.777,1.418c-0.984,0.316-2.039,0.476-3.156,0.476
		c-1.975,0-3.527-0.401-4.666-1.2c-1.137-0.801-1.705-1.816-1.705-3.036c0-0.813,0.258-1.534,0.774-2.167
		c0.518-0.635,1.241-1.124,2.178-1.462c0.931-0.334,2.274-0.631,4.032-0.882c2.367-0.335,4.009-0.646,4.924-0.936v-0.379
		c0-0.727-0.236-1.247-0.719-1.559c-0.481-0.311-1.393-0.467-2.729-0.467c-0.901,0-1.604,0.136-2.108,0.396
		c-0.504,0.27-0.914,0.734-1.229,1.399l-4.599-0.621c0.519-1.389,1.408-2.411,2.67-3.077c1.261-0.668,3.141-1,5.63-1
		c2.262,0,3.946,0.202,5.051,0.603c1.109,0.397,1.888,0.908,2.339,1.522c0.45,0.618,0.676,1.747,0.676,3.397l-0.051,4.429
		c0,1.257,0.08,2.188,0.241,2.788c0.161,0.599,0.464,1.236,0.908,1.925L57.698,114.014L57.698,114.014z M71.81,114.335
		c-0.914,0-1.736-0.113-2.471-0.347c-0.732-0.229-1.271-0.525-1.615-0.891c-0.344-0.363-0.58-0.854-0.711-1.478
		c-0.109-0.443-0.162-1.335-0.162-2.672v-6.255h-2.332V99.67h2.332v-2.848l5.086-2.217v5.063h3.469v3.023h-3.469v5.779
		c0,1.168,0.035,1.852,0.102,2.045c0.063,0.193,0.217,0.353,0.449,0.479c0.234,0.125,0.521,0.188,0.855,0.188
		c0.471,0,1.148-0.12,2.039-0.362l0.434,2.94C74.639,114.145,73.302,114.335,71.81,114.335z M83.866,110.562
		c0.783,0.628,1.758,0.939,2.922,0.939c0.793,0,1.461-0.16,2.002-0.487c0.545-0.324,0.951-0.844,1.229-1.566l5.053,0.637
		c-0.646,1.389-1.678,2.441-3.073,3.168c-1.403,0.724-3.156,1.085-5.261,1.085c-3.334,0-5.801-0.813-7.397-2.442
		c-1.264-1.305-1.896-2.953-1.896-4.942c0-2.374,0.83-4.231,2.486-5.58c1.661-1.349,3.76-2.02,6.301-2.02
		c2.851,0,5.101,0.706,6.749,2.112c1.646,1.405,2.436,3.563,2.361,6.473H82.636C82.673,109.061,83.083,109.936,83.866,110.562z
		 M113.386,112.919c-1.465,0.94-3.637,1.417-6.516,1.417c-2.608,0-4.677-0.396-6.199-1.189c-1.521-0.789-2.517-1.862-2.982-3.223
		l5.09-0.584c0.215,0.736,0.655,1.299,1.314,1.684c0.664,0.378,1.591,0.572,2.777,0.572c1.313,0,2.299-0.183,2.965-0.541
		c0.444-0.252,0.666-0.59,0.666-1.014c0-0.285-0.121-0.527-0.361-0.716c-0.253-0.178-0.82-0.348-1.697-0.497
		c-4.092-0.676-6.682-1.295-7.773-1.851c-1.52-0.773-2.272-1.849-2.272-3.229c0-1.242,0.655-2.287,1.965-3.132
		c1.312-0.845,3.349-1.269,6.103-1.269c2.623,0,4.57,0.318,5.848,0.957c1.273,0.639,2.15,1.585,2.635,2.834l-4.781,0.664
		c-0.209-0.563-0.596-0.985-1.168-1.285c-0.567-0.297-1.385-0.443-2.439-0.443c-1.336,0-2.295,0.14-2.869,0.417
		c-0.387,0.198-0.579,0.456-0.579,0.772c0,0.271,0.17,0.496,0.509,0.688c0.454,0.25,2.032,0.604,4.734,1.064
		c2.695,0.461,4.582,1.024,5.656,1.688c1.06,0.673,1.586,1.613,1.586,2.818C115.589,110.844,114.854,111.975,113.386,112.919z
		 M117.878,83.244c0,5.129-4.063,9.307-9.06,9.307H22.315c-4.996,0-9.061-4.178-9.061-9.307V23.946c0-5.133,4.064-9.306,9.061-9.306
		h86.504c4.996,0,9.061,4.173,9.061,9.306v59.299H117.878z"/>
	<path d="M89.173,103.111c-0.726-0.567-1.604-0.856-2.635-0.856c-1.111,0-2.025,0.301-2.744,0.905
		c-0.726,0.603-1.076,1.422-1.064,2.453h7.578C90.272,104.517,89.891,103.682,89.173,103.111z"/>
	<path d="M50.789,108.367c-0.66,0.352-0.99,0.795-0.99,1.336c0,0.533,0.262,0.993,0.793,1.381c0.529,0.388,1.201,0.577,2.021,0.577
		c0.914,0,1.783-0.227,2.612-0.673c0.616-0.345,1.021-0.761,1.211-1.257c0.134-0.323,0.197-0.941,0.197-1.85v-0.76
		c-0.646,0.163-1.679,0.358-3.084,0.586C52.144,107.932,51.223,108.155,50.789,108.367z"/>
	<path d="M35.559,100.025c0-0.664-0.237-1.201-0.712-1.609c-0.477-0.408-1.146-0.669-2.013-0.776
		c-0.435-0.045-1.732-0.066-3.896-0.066h-4.17v5.021h3.953c2.561,0,4.16-0.08,4.799-0.24c0.639-0.161,1.137-0.439,1.499-0.839
		C35.376,101.114,35.559,100.619,35.559,100.025z"/>
	<path d="M108.819,17.404H22.317c-3.479,0-6.298,2.929-6.298,6.542v59.299c0,3.614,2.819,6.541,6.298,6.541h86.502
		c3.479,0,6.297-2.927,6.297-6.541V23.946C115.114,20.331,112.296,17.404,108.819,17.404z M81.692,61.638
		C79.108,73.7,67.905,73.412,67.905,73.412v4.6h-6.892v-4.885c-7.471,0.859-13.792-4.597-13.792-4.597l4.598-9.768
		c12.926,7.753,16.086,3.159,16.086,3.159c1.148-3.157-3.621-3.733-3.621-3.733c-12.819,0-15.338-8.901-15.338-8.901
		c-1.147-15.225,12.926-15.8,12.926-15.8V29.18h6.607v3.734c6.609,0.86,11.203,3.16,11.203,3.16l-4.313,10.34
		c-4.306-4.022-10.853-3.447-10.853-3.447c-7.688,3.735,7.122,6.035,7.122,6.035C83.702,52.446,81.692,61.638,81.692,61.638z"/>
	<path fill="none" d="M71.64,49.001c0,0-14.811-2.3-7.121-6.035c0,0,6.545-0.575,10.852,3.447l4.313-10.339
		c0,0-4.595-2.301-11.202-3.161v-3.734h-6.609v4.309c0,0-14.073,0.576-12.924,15.8c0,0,2.518,8.901,15.336,8.901
		c0,0,4.771,0.576,3.623,3.733c0,0-3.162,4.594-16.086-3.159l-4.599,9.768c0,0,6.32,5.456,13.791,4.597v4.885h6.894v-4.6
		c0,0,11.203,0.288,13.785-11.774C81.692,61.638,83.702,52.446,71.64,49.001z"/>
</g>
</svg>
