<?xml version="1.0" encoding="utf-8"?>
<!-- Generator: Adobe Illustrator 16.0.0, SVG Export Plug-In . SVG Version: 6.00 Build 0)  -->
<!DOCTYPE svg PUBLIC "-//W3C//DTD SVG 1.1//EN" "http://www.w3.org/Graphics/SVG/1.1/DTD/svg11.dtd">
<svg version="1.1" id="Layer_1" xmlns="http://www.w3.org/2000/svg" xmlns:xlink="http://www.w3.org/1999/xlink" x="0px" y="0px"
	 width="136.842px" height="173.684px" viewBox="0 0 136.842 173.684" enable-background="new 0 0 136.842 173.684"
	 xml:space="preserve">
<g>
	<path d="M43.689,111.145v-7.311c0,0-23.629,3.656-21.683-17.543c0,0,1.463-9.257,11.938-12.668c0,0-5.36-9.498,0.242-13.151
		c0,0,4.873-6.821,17.295,4.87c0,0,6.34-20.219,21.926-21.682c0,0,29.966-3.166,28.506,30.698c0,0,14.861,3.167,12.91,18.272
		c0,0-1.219,9.012-11.935,11.203H85.593v7.311h17.297c0,0,16.808-1.709,19.49-19.248c0,0,1.459-16.079-12.668-22.166
		c0,0,1.218-12.428-9.503-23.878c0,0-25.969-27.534-52.139,7.31c0,0-24.848-8.527-23.383,17.051c0,0-10.964,6.581-10.234,20.708
		C14.455,90.92,16.404,113.58,43.689,111.145z"/>
	<path d="M83.4,105.781l-7.063-2.193L79.99,97.5l-4.387-4.143L69.999,97.5l-1.578-7.553H61.96L60.259,97.5l-6.338-4.143l-4.14,4.385
		l3.654,6.092l-7.064,1.706v5.784l7.064,2.014l-3.898,6.329l4.63,3.902l6.333-3.41l1.46,6.574h6.461l1.578-6.574l6.702,3.653
		l3.289-4.872l-3.289-5.85l6.699-1.768V105.781L83.4,105.781z M64.887,115.406c-3.9,0-7.064-3.163-7.064-7.063
		s3.164-7.063,7.064-7.063s7.063,3.162,7.063,7.063S68.787,115.406,64.887,115.406z"/>
	<path d="M95.763,85.287l-3.438-1.071l1.781-2.988l-2.139-2.026l-2.727,2.026l-0.773-3.702h-3.141l-0.832,3.702l-3.082-2.026
		l-2.016,2.146l1.775,2.987l-3.439,0.833v2.835l3.439,0.985l-1.896,3.104l2.254,1.91l3.082-1.67l0.715,3.224h3.141l0.771-3.224
		l3.261,1.79l1.604-2.386l-1.604-2.868l3.261-0.866v-2.715H95.763L95.763,85.287z M86.746,90.006c-1.899,0-3.436-1.553-3.436-3.465
		c0-1.914,1.534-3.462,3.436-3.462c1.898,0,3.443,1.548,3.443,3.462C90.189,88.454,88.648,90.006,86.746,90.006z"/>
</g>
</svg>
