<?xml version="1.0" encoding="utf-8"?>
<!-- Generator: Adobe Illustrator 22.1.0, SVG Export Plug-In . SVG Version: 6.00 Build 0)  -->
<svg version="1.1" id="Layer_1" xmlns="http://www.w3.org/2000/svg" xmlns:xlink="http://www.w3.org/1999/xlink" x="0px" y="0px"
	 viewBox="0 0 100 106.207" style="enable-background:new 0 0 100 106.207;" xml:space="preserve">
<style type="text/css">
	.st0{fill:#000102;}
</style>
<g id="g9335">
	<g id="path9299">
		<path class="st0" d="M15.32,28.928c-2.238,0-4.088,1.85-4.088,4.089v36.252c0,2.238,1.85,4.088,4.088,4.088h66.531
			c2.238,0,4.088-1.85,4.088-4.088V33.017c0-2.238-1.85-4.089-4.088-4.089H15.32z M15.32,31.995h66.531
			c0.593,0,1.022,0.43,1.022,1.022v36.252c0,0.593-0.43,1.022-1.022,1.022H15.32c-0.593,0-1.022-0.429-1.022-1.022V33.017
			C14.298,32.424,14.727,31.995,15.32,31.995z"/>
	</g>
	<g id="path9301">
		<path class="st0" d="M12.863,38.214l71.543-0.057v10.701l-71.641-0.48L12.863,38.214z"/>
	</g>
	<g id="path9303">
		<path class="st0" d="M86.925,35.572v3.066h1.222c0.593,0,1.022,0.429,1.022,1.022v36.252c0,0.593-0.43,1.022-1.022,1.022H21.616
			c-0.593,0-1.022-0.429-1.022-1.022V74.89h-3.066v1.022c0,2.238,1.85,4.088,4.088,4.088h66.531c2.238,0,4.088-1.85,4.088-4.088
			V39.66c0-2.238-1.85-4.088-4.088-4.088H86.925z"/>
	</g>
	<g id="path9305">
		<path class="st0" d="M53.745,56.283H17.973c-0.149,0-0.27-0.121-0.27-0.27c0-0.149,0.121-0.27,0.27-0.27h35.772
			c0.149,0,0.27,0.121,0.27,0.27C54.015,56.162,53.894,56.283,53.745,56.283z"/>
	</g>
	<g id="path9307">
		<path class="st0" d="M43.744,61.393H17.973c-0.149,0-0.27-0.121-0.27-0.27s0.121-0.27,0.27-0.27h25.771
			c0.149,0,0.27,0.121,0.27,0.27S43.893,61.393,43.744,61.393z"/>
	</g>
</g>
</svg>
